# xmcd CD database file
#
# Track frame offsets:
#	150
#	16872
#	39970
#	60032
#	76562
#	98920
#	123457
#	145860
#	167725
#	189820
#	213005
#	233160
#
# Disc length: 3533 seconds
#
# Revision: 0
# Processed by: cddbd v1.5PL3 Copyright (c) Steve Scherf et al.
# Submitted via: CDex 1.50beta9
#
DISCID=800dcb0c
DTITLE=Burning Water - Abbandonato(Japan Ver.)
DYEAR=1900
DGENRE=Blues
TTITLE0=Push Push
TTITLE1=No Reflection
TTITLE2=Places Where Nobody Went
TTITLE3=Faded Rose
TTITLE4='D' The Diamond (Song For David)
TTITLE5=Venus's Daughter
TTITLE6=Goodbye Guiding Light
TTITLE7=Only The Prettiest Things
TTITLE8=Circle The Wagons
TTITLE9=One Lousy Reason
TTITLE10=Pictures Painted Upside Down
TTITLE11=War Cry
EXTD=
EXTT0=
EXTT1=
EXTT2=
EXTT3=
EXTT4=
EXTT5=
EXTT6=
EXTT7=
EXTT8=
EXTT9=
EXTT10=
EXTT11=
PLAYORDER=
